# xmcd
#
# Track frame offsets: 
#        150
#        11887
#        32632
#        44677
#        61553
#        77990
#
# Disc length: 1243 seconds
#
# Revision: 0
# Processed by: cddbd v1.5.2PL0 Copyright (c) Steve Scherf et al.
# Submitted via: ExactAudioCopyFreeDBPlugin 1.0
#
DISCID=4604d906
DTITLE=Various Artist - 鸣瑞竖琴精选 高保真音响2011-04
DYEAR=2011
DGENRE=Crossover
TTITLE0=47弦的记忆 - 梦的华尔兹
TTITLE1=47弦的记忆 - 永隔一江水
TTITLE2=琴 - 关山月
TTITLE3=门 - 欢乐的萨丽哈
TTITLE4=瑶山夜歌 - 小白菜
TTITLE5=黑白风景 - 夜了天
EXTD=
EXTT0=
EXTT1=
EXTT2=
EXTT3=
EXTT4=
EXTT5=
PLAYORDER=
